<svg id="Icons" height="512" viewBox="0 0 74 74" width="512" xmlns="http://www.w3.org/2000/svg"><path d="m31.246 50.027a4.828 4.828 0 0 1 -2.946-1.027c-1.906-1.462-3.277-4.5-2.772-9.168-2.944 3.659-6.053 4.829-8.442 4.523a4.735 4.735 0 0 1 -4.176-4.175c-.313-2.383.864-5.5 4.523-8.443-4.672.51-7.706-.865-9.168-2.771a4.734 4.734 0 0 1 0-5.9c1.462-1.906 4.5-3.28 9.168-2.771-3.659-2.944-4.837-6.061-4.523-8.443a4.733 4.733 0 0 1 4.172-4.172c2.379-.313 5.5.863 8.442 4.522-.5-4.669.866-7.705 2.772-9.168a4.734 4.734 0 0 1 5.9 0c1.904 1.466 3.278 4.499 2.772 9.166 2.944-3.658 6.064-4.84 8.442-4.522a4.734 4.734 0 0 1 4.172 4.171c.313 2.383-.864 5.5-4.523 8.443 4.668-.511 7.705.865 9.168 2.771a4.734 4.734 0 0 1 0 5.9c-1.463 1.906-4.5 3.282-9.168 2.771 3.659 2.944 4.837 6.062 4.523 8.443a4.735 4.735 0 0 1 -4.172 4.172c-2.389.306-5.5-.866-8.442-4.523.505 4.674-.868 7.708-2.768 9.174a4.829 4.829 0 0 1 -2.954 1.027zm-1.759-17.153c-3.367 8.126-2.087 12.911.027 14.535a2.714 2.714 0 0 0 3.465 0c2.121-1.624 3.393-6.409.021-14.535a1 1 0 1 1 1.848-.766c3.368 8.131 7.656 10.6 10.3 10.26a2.714 2.714 0 0 0 2.449-2.45c.349-2.645-2.13-6.929-10.26-10.3a1 1 0 1 1 .766-1.848c8.131 3.367 12.912 2.091 14.535-.026a2.713 2.713 0 0 0 0-3.464c-1.623-2.118-6.405-3.393-14.535-.026a1 1 0 0 1 -.766-1.848c8.13-3.368 10.608-7.652 10.26-10.3a2.715 2.715 0 0 0 -2.449-2.45c-2.64-.345-6.929 2.128-10.3 10.261a1 1 0 0 1 -1.848-.76c3.367-8.13 2.091-12.912-.026-14.536a2.715 2.715 0 0 0 -3.464 0c-2.117 1.624-3.395 6.405-.027 14.536a1 1 0 1 1 -1.848.766c-3.368-8.133-7.661-10.6-10.3-10.261a2.716 2.716 0 0 0 -2.45 2.45c-.349 2.646 2.13 6.929 10.26 10.3a1 1 0 1 1 -.766 1.848c-8.131-3.367-12.912-2.091-14.535.026a2.713 2.713 0 0 0 0 3.464c1.623 2.117 6.406 3.394 14.535.026a1 1 0 0 1 .766 1.848c-8.13 3.368-10.608 7.651-10.26 10.3a2.717 2.717 0 0 0 2.45 2.45c2.656.343 6.93-2.13 10.3-10.26a1 1 0 0 1 1.848.766z"/><path d="m31.246 34.017a8 8 0 1 1 8-8 8.01 8.01 0 0 1 -8 8zm0-14a6 6 0 1 0 6 6 6.008 6.008 0 0 0 -6-6.002z"/><path d="m65.769 72a1 1 0 0 1 -.475-.12c-24.013-12.991-32.02-38.316-32.094-38.569a1 1 0 0 1 1.912-.588c.076.247 7.863 24.807 31.137 37.4a1 1 0 0 1 -.48 1.877z"/><path d="m51.223 60.747a1 1 0 0 1 -.947-.684 13.368 13.368 0 0 1 10.172-17.71 1 1 0 0 1 1.152.662 13.368 13.368 0 0 1 -10.172 17.711.976.976 0 0 1 -.205.021zm8.742-16.219a11.3 11.3 0 0 0 -8.054 14.022 11.3 11.3 0 0 0 8.054-14.021z"/><path d="m40.113 62.709c-.28 0-.561-.009-.843-.026a13.594 13.594 0 0 1 -9.888-5.383 1 1 0 0 1 .085-1.327 13.368 13.368 0 0 1 20.383 1.3 1 1 0 0 1 -.085 1.327 13.662 13.662 0 0 1 -9.652 4.109zm-8.566-5.937a11.3 11.3 0 0 0 16.137 1.028 11.3 11.3 0 0 0 -16.137-1.029z"/></svg>